<svg height='300px' width='300px' fill="green" xmlns="http://www.w3.org/2000/svg" xmlns:xlink="http://www.w3.org/1999/xlink" version="1.1" x="0px" y="0px" viewBox="0 0 100 100" style="enable-background:new 0 0 100 100;" xml:space="preserve"><path d="M89.5791,88.10059c-10.71228-5.16302-21.05096-7.711-30.52344-8.64111V53.53809h12.25977  c3.72168,0,6.74902-3.02832,6.74902-6.75v-1.59863c0-0.55273-0.44727-1-1-1h-21.1416V23.85797  c1.45636-1.47113,2.3584-3.49231,2.3584-5.72125c0-4.48633-3.65039-8.13672-8.13672-8.13672  c-4.4873,0-8.1377,3.65039-8.1377,8.13672c0,2.22937,0.90234,4.25098,2.35938,5.72217v20.33057H23.22363c-0.55273,0-1,0.44727-1,1  v1.59863c0,3.72168,3.02832,6.75,6.75,6.75H41.2334v25.94586c-18.27441,1.82361-30.39331,8.5285-30.60156,8.64691  c-0.48047,0.27344-0.64941,0.88379-0.37695,1.36328c0.27344,0.48145,0.88281,0.64844,1.36328,0.37695  c0.35449-0.20117,35.85449-19.8457,77.0918,0.03027c0.14062,0.06836,0.28809,0.09961,0.43359,0.09961  c0.37207,0,0.72949-0.20801,0.90137-0.56543C90.28516,88.9375,90.07617,88.33984,89.5791,88.10059z M53.92285,32.72754  l-7.23407-7.23407c1.0506,0.49561,2.21912,0.78094,3.45575,0.78094c1.36383,0,2.64807-0.34125,3.77832-0.93689V32.72754z   M46.36621,27.99902l7.4834,7.4834c0.02161,0.02161,0.05023,0.02942,0.07324,0.04865v6.65057l-7.50293-7.50293  c-0.01587-0.01587-0.03711-0.02112-0.05371-0.03571V27.99902z M50.14453,12c3.38379,0,6.13672,2.75293,6.13672,6.13672  c0,3.38477-2.75293,6.1377-6.13672,6.1377c-3.38477,0-6.1377-2.75293-6.1377-6.1377C44.00684,14.75293,46.75977,12,50.14453,12z   M46.36621,37.45312l6.73633,6.73633h-6.73633V37.45312z M24.22363,46.78809v-0.59863h51.84082v0.59863  c0,2.61914-2.13086,4.75-4.74902,4.75h-42.3418C26.35449,51.53809,24.22363,49.40723,24.22363,46.78809z M43.2334,53.53809h13.82227  v25.74847c-2.01343-0.15192-3.98651-0.23486-5.91113-0.25275V61.43555c0-0.55273-0.44727-1-1-1s-1,0.44727-1,1v17.60223  c-2.02832,0.02612-4.00079,0.11908-5.91113,0.26782V53.53809z"></path><path d="M30.83105,17.52637c-0.11719-0.3623-0.43066-0.62695-0.80762-0.68066l-6.00391-0.86914l-2.68359-5.41992  c-0.33789-0.68164-1.45508-0.68164-1.79297,0l-2.68359,5.41992l-6.00293,0.86914c-0.37695,0.05371-0.69043,0.31836-0.80762,0.68066  s-0.01855,0.76074,0.25391,1.02539l4.3418,4.21875l-1.02441,5.95508c-0.06445,0.375,0.08887,0.75488,0.39648,0.97852  c0.30957,0.22461,0.7168,0.25391,1.05273,0.07715l5.37012-2.81445l5.37012,2.81445c0.14551,0.07617,0.30469,0.11426,0.46387,0.11426  c0.20801,0,0.41406-0.06445,0.58887-0.19141c0.30762-0.22363,0.46094-0.60352,0.39648-0.97852l-1.02441-5.95508l4.34277-4.21875  C30.84961,18.28711,30.94824,17.88867,30.83105,17.52637z M24.46191,21.7041c-0.23633,0.22949-0.34375,0.56152-0.28809,0.88672  l0.77051,4.47949l-4.04102-2.11816c-0.14453-0.07617-0.30469-0.11426-0.46387-0.11426s-0.31934,0.03809-0.46387,0.11426  l-4.04102,2.11816l0.77051-4.47949c0.05566-0.3252-0.05176-0.65723-0.28809-0.88672l-3.2627-3.1709l4.51172-0.65332  c0.3252-0.04688,0.60645-0.25098,0.75293-0.5459l2.02051-4.08008l2.02051,4.08008c0.14648,0.29492,0.42773,0.49902,0.75293,0.5459  l4.5127,0.65332L24.46191,21.7041z"></path><path d="M64.20117,63.78906c0,2.83691,2.32129,5.14453,5.1748,5.14453s5.1748-2.30762,5.1748-5.14453  s-2.32129-5.14551-5.1748-5.14551S64.20117,60.95215,64.20117,63.78906z M72.55078,63.78906  c0,1.73438-1.42383,3.14453-3.1748,3.14453s-3.1748-1.41016-3.1748-3.14453s1.42383-3.14551,3.1748-3.14551  S72.55078,62.05469,72.55078,63.78906z"></path><path d="M35.33789,39.91992c2.85254,0,5.17383-2.30762,5.17383-5.14453s-2.32129-5.14453-5.17383-5.14453  c-2.85352,0-5.1748,2.30762-5.1748,5.14453S32.48438,39.91992,35.33789,39.91992z M35.33789,31.63086  c1.75,0,3.17383,1.41016,3.17383,3.14453s-1.42383,3.14453-3.17383,3.14453c-1.75098,0-3.1748-1.41016-3.1748-3.14453  S33.58691,31.63086,35.33789,31.63086z"></path><path d="M70.20508,38.79102c0.30957,0.22363,0.71777,0.25293,1.05273,0.07715l6.49023-3.40039l6.49023,3.40039  c0.14551,0.07617,0.30469,0.11426,0.46387,0.11426c0.20801,0,0.41406-0.06445,0.58887-0.19141  c0.30762-0.22363,0.46094-0.60352,0.39648-0.97852l-1.23828-7.19727l5.24805-5.09863  c0.27246-0.26465,0.37109-0.66309,0.25391-1.02539s-0.43066-0.62695-0.80762-0.68066l-7.25488-1.05078l-3.24414-6.55078  c-0.33789-0.68164-1.45508-0.68164-1.79297,0l-3.24316,6.55078l-7.25586,1.05078c-0.37695,0.05371-0.69043,0.31836-0.80762,0.68066  s-0.01855,0.76074,0.25391,1.02539l5.24805,5.09863l-1.23828,7.19727C69.74414,38.1875,69.89746,38.56738,70.20508,38.79102z   M68.65039,25.49805l5.76465-0.83496c0.3252-0.04688,0.60645-0.25098,0.75293-0.5459l2.58008-5.21094l2.58105,5.21094  c0.14648,0.29492,0.42773,0.49902,0.75293,0.5459l5.76367,0.83496l-4.16895,4.05078  c-0.23633,0.22949-0.34375,0.56152-0.28809,0.88672l0.98438,5.72168l-5.16113-2.7041  c-0.14551-0.07617-0.30469-0.11426-0.46387-0.11426s-0.31836,0.03809-0.46387,0.11426l-5.16113,2.7041l0.98438-5.72168  c0.05566-0.3252-0.05176-0.65723-0.28809-0.88672L68.65039,25.49805z"></path><path d="M18.9082,63.33301c0.55273,0,1-0.44727,1-1v-2.26953h2.27637c0.55273,0,1-0.44727,1-1s-0.44727-1-1-1H19.9082v-2.26953  c0-0.55273-0.44727-1-1-1s-1,0.44727-1,1v2.26953h-2.27637c-0.55273,0-1,0.44727-1,1s0.44727,1,1,1h2.27637v2.26953  C17.9082,62.88574,18.35547,63.33301,18.9082,63.33301z"></path><path d="M85.72363,59.4834c0.55273,0,1-0.44727,1-1v-2.26953H89c0.55273,0,1-0.44727,1-1s-0.44727-1-1-1h-2.27637v-2.27051  c0-0.55273-0.44727-1-1-1s-1,0.44727-1,1v2.27051h-2.27637c-0.55273,0-1,0.44727-1,1s0.44727,1,1,1h2.27637v2.26953  C84.72363,59.03613,85.1709,59.4834,85.72363,59.4834z"></path></svg>